<?xml version="1.0" standalone="no"?>
<!DOCTYPE svg PUBLIC "-//W3C//DTD SVG 20010904//EN"
 "http://www.w3.org/TR/2001/REC-SVG-20010904/DTD/svg10.dtd">
<svg version="1.0" xmlns="http://www.w3.org/2000/svg"
 width="800.000000pt" height="800.000000pt" viewBox="0 0 800.000000 800.000000"
 preserveAspectRatio="xMidYMid meet">
<metadata>
Created by potrace 1.11, written by Peter Selinger 2001-2013
</metadata>
<g transform="translate(0.000000,800.000000) scale(0.100000,-0.100000)"
fill="#000000" stroke="none">
<path d="M1468 5965 c-2 -2 -21 -5 -43 -8 -213 -30 -412 -257 -419 -479 -1
-16 -3 -28 -4 -28 -2 0 -27 7 -55 15 -243 69 -544 -49 -681 -269 -91 -146 -96
-183 -93 -741 2 -253 6 -473 10 -490 4 -16 12 -52 19 -79 15 -66 78 -220 111
-273 15 -24 27 -47 27 -53 0 -5 4 -10 9 -10 4 0 21 -19 36 -42 16 -24 160
-175 322 -337 161 -161 293 -301 294 -310 10 -331 273 -607 614 -645 28 -4 61
-8 74 -11 21 -4 79 -12 221 -31 19 -2 44 -6 55 -9 11 -2 47 -7 80 -10 33 -3
74 -8 90 -10 17 -2 57 -7 90 -10 33 -3 76 -8 95 -11 19 -3 60 -7 90 -9 30 -3
71 -7 90 -10 19 -3 67 -7 105 -10 122 -8 239 -17 275 -20 33 -4 173 -12 325
-20 472 -24 1186 -24 1575 0 36 2 119 6 185 10 66 3 140 8 165 10 25 2 83 7
130 10 94 7 157 12 240 20 30 3 75 8 100 10 25 2 65 7 90 10 25 3 65 7 90 10
25 3 61 7 80 10 19 2 60 7 90 10 30 3 64 7 75 9 11 2 43 7 70 10 28 4 61 8 75
11 14 2 41 6 60 9 48 6 190 27 215 31 124 20 250 87 353 187 115 112 180 246
197 404 l6 61 298 299 c355 357 410 431 479 644 46 141 51 199 51 665 0 441
-5 516 -38 600 -7 17 -13 32 -13 35 -2 10 -56 98 -74 121 -52 66 -127 127
-205 166 -106 53 -107 54 -199 71 -75 13 -218 2 -282 -23 -10 -4 -18 -6 -19
-4 0 2 -3 24 -5 49 -8 68 -46 170 -88 233 -131 197 -323 265 -605 212 -9 -1
-41 -6 -71 -10 -54 -6 -73 -9 -135 -19 -16 -2 -55 -8 -85 -11 -30 -4 -63 -9
-73 -11 -10 -2 -46 -6 -80 -9 -34 -3 -73 -8 -87 -10 -14 -2 -54 -7 -90 -10
-64 -6 -83 -8 -190 -20 -79 -9 -129 -13 -248 -20 -58 -4 -113 -8 -121 -10 -18
-3 -192 -15 -291 -20 -36 -2 -135 -7 -220 -11 -191 -11 -1022 -11 -1220 0
-315 16 -467 26 -515 31 -16 2 -74 7 -130 10 -101 7 -144 10 -225 20 -25 2
-67 7 -95 10 -27 2 -70 7 -95 10 -25 2 -67 7 -95 10 -95 10 -140 15 -215 25
-41 6 -88 13 -105 15 -94 13 -113 16 -140 20 -16 3 -50 7 -75 10 -25 3 -58 8
-75 11 -33 7 -153 13 -157 9z m172 -430 c19 -2 50 -7 68 -10 18 -3 52 -7 75
-10 23 -3 53 -7 67 -10 14 -3 43 -7 65 -10 22 -3 49 -7 60 -9 11 -2 49 -7 85
-11 36 -3 83 -8 105 -11 22 -2 60 -6 85 -9 25 -2 68 -7 95 -10 28 -3 68 -7 90
-10 22 -2 76 -7 120 -10 44 -4 96 -8 115 -10 19 -2 73 -6 120 -10 47 -3 108
-8 135 -10 408 -36 1231 -46 1795 -21 222 10 334 17 370 21 19 2 73 7 120 10
47 3 101 8 120 10 19 2 73 7 120 10 47 4 96 8 110 10 14 2 57 6 95 10 39 4 81
8 95 10 14 2 57 7 95 10 72 7 87 9 165 20 76 11 91 13 210 29 63 9 126 18 140
21 14 3 54 8 90 11 60 6 67 5 89 -18 51 -53 49 5 47 -1394 l-1 -1309 -22 -41
c-53 -98 -107 -136 -219 -154 -38 -6 -80 -13 -94 -15 -14 -2 -45 -7 -70 -10
-25 -3 -85 -12 -135 -20 -49 -8 -115 -17 -145 -20 -30 -3 -71 -8 -90 -10 -19
-3 -60 -7 -90 -10 -30 -3 -71 -7 -90 -10 -110 -13 -140 -16 -305 -29 -38 -3
-97 -8 -130 -11 -84 -7 -208 -16 -285 -20 -36 -2 -139 -7 -230 -12 -214 -11
-1147 -10 -1360 1 -91 4 -194 9 -230 11 -36 2 -99 6 -140 9 -82 7 -140 12
-270 21 -47 4 -101 8 -120 10 -19 2 -64 6 -100 9 -36 4 -76 9 -90 11 -14 2
-52 7 -85 10 -33 3 -76 7 -95 10 -19 2 -60 7 -90 10 -30 4 -95 12 -145 20 -49
8 -110 17 -135 20 -247 35 -285 47 -334 106 -15 17 -37 50 -49 73 l-22 41 -1
1311 c-2 1268 -1 1312 17 1350 33 68 51 72 209 49z m-759 -489 c20 -9 54 -35
76 -56 l40 -40 0 -740 c0 -735 0 -740 -20 -723 -30 27 -232 234 -260 266 -38
44 -83 135 -108 217 -22 73 -23 85 -23 500 0 312 3 435 12 461 19 55 83 117
137 132 34 10 109 1 146 -17z m6425 -2 c36 -22 71 -60 92 -99 14 -26 16 -83
16 -460 -1 -480 -2 -495 -71 -635 -31 -64 -60 -99 -188 -229 l-152 -154 0 741
0 741 43 42 c61 60 107 79 175 75 31 -2 69 -12 85 -22z"/>
<path d="M1777 4820 c-44 -8 -104 -54 -131 -100 -22 -37 -29 -127 -14 -171 25
-71 111 -129 213 -143 22 -2 51 -7 65 -10 14 -2 68 -12 120 -20 52 -9 104 -18
115 -20 42 -8 123 -20 210 -31 97 -12 119 -15 144 -19 107 -17 200 -28 351
-41 36 -3 85 -8 110 -10 155 -16 137 -14 425 -32 171 -10 1053 -10 1225 0 74
5 167 10 205 12 66 4 132 10 235 20 25 3 68 7 95 10 28 2 77 7 110 10 33 3 74
8 90 10 17 2 55 7 85 10 30 3 62 8 70 10 8 2 40 7 70 10 30 3 66 8 80 10 14 2
61 9 105 15 44 7 89 14 100 16 33 7 68 13 115 19 25 3 61 10 80 15 19 4 55 11
80 14 113 14 168 40 210 97 78 109 29 271 -96 314 -50 17 -96 14 -299 -23
-207 -38 -210 -38 -315 -52 -47 -6 -96 -13 -110 -15 -14 -2 -50 -7 -80 -10
-30 -4 -66 -9 -80 -10 -14 -2 -54 -7 -90 -10 -36 -4 -75 -8 -87 -10 -12 -2
-57 -6 -100 -10 -43 -4 -89 -8 -103 -11 -28 -4 -130 -12 -260 -20 -551 -31
-1283 -22 -1705 21 -22 2 -65 7 -95 10 -31 2 -77 7 -103 10 -44 5 -71 8 -184
20 -27 3 -63 8 -80 10 -18 3 -48 7 -65 10 -18 2 -82 11 -143 20 -60 8 -121 17
-135 19 -341 62 -379 67 -433 56z"/>
<path d="M1742 3774 c-12 -8 -22 -12 -22 -8 0 4 -14 -5 -31 -22 -133 -126 -69
-332 113 -364 94 -17 112 -20 208 -35 52 -9 106 -18 120 -20 36 -7 276 -43
335 -50 28 -4 61 -8 75 -10 48 -8 195 -24 260 -30 36 -3 81 -8 100 -10 57 -7
139 -15 235 -21 50 -3 115 -7 145 -9 366 -25 1065 -25 1435 -1 28 2 99 7 159
11 60 3 116 8 125 10 10 2 57 6 107 10 49 4 96 9 105 10 9 2 52 6 95 10 43 4
81 9 84 10 3 2 34 6 70 10 36 4 72 8 80 10 8 1 40 6 70 10 30 4 62 9 70 10 8
1 40 6 70 10 30 4 63 9 73 11 25 4 254 44 292 50 126 20 145 27 190 69 118
108 79 296 -71 345 -34 12 -116 9 -184 -5 -37 -7 -201 -36 -234 -40 -15 -3
-35 -6 -45 -9 -9 -3 -34 -7 -56 -10 -22 -3 -92 -12 -155 -21 -63 -8 -137 -17
-165 -20 -27 -3 -57 -8 -65 -10 -8 -2 -49 -6 -90 -10 -41 -3 -86 -8 -100 -10
-14 -2 -59 -7 -100 -10 -41 -3 -91 -8 -110 -11 -19 -3 -66 -7 -105 -9 -81 -4
-317 -16 -420 -21 -99 -4 -725 -4 -815 0 -41 2 -131 7 -200 10 -171 9 -255 14
-320 21 -30 3 -80 7 -110 10 -30 3 -71 7 -90 9 -19 3 -66 8 -103 11 -37 4 -76
8 -85 10 -9 1 -45 6 -79 10 -35 4 -73 9 -85 10 -13 2 -79 11 -148 20 -69 9
-143 20 -165 25 -22 5 -58 11 -80 15 -22 3 -90 15 -152 25 -135 24 -201 25
-231 4z"/>
</g>
</svg>
